<svg width="21" height="20" viewBox="0 0 21 20" fill="none" xmlns="http://www.w3.org/2000/svg">
<path d="M10.9014 0C5.37887 0 0.901367 4.54761 0.901367 10.1566C0.901367 14.9158 4.12803 18.898 8.47803 20C8.43137 19.8629 8.40137 19.7038 8.40137 19.5066V17.7706C7.99553 17.7706 7.31553 17.7706 7.1447 17.7706C6.46053 17.7706 5.8522 17.4719 5.5572 16.9166C5.2297 16.2996 5.17303 15.3559 4.36137 14.7787C4.12053 14.5865 4.30387 14.3673 4.58137 14.397C5.09387 14.5442 5.51887 14.9014 5.91887 15.4312C6.3172 15.9619 6.5047 16.0821 7.24887 16.0821C7.6097 16.0821 8.1497 16.0609 8.65803 15.9797C8.93137 15.2747 9.40387 14.6255 9.98137 14.3191C6.65137 13.9712 5.0622 12.2886 5.0622 10.0042C5.0622 9.02074 5.4747 8.0694 6.17553 7.26788C5.94553 6.47228 5.65637 4.84977 6.26387 4.23191C7.7622 4.23191 8.66803 5.21879 8.88553 5.4854C9.6322 5.22556 10.4522 5.07829 11.3139 5.07829C12.1772 5.07829 13.0005 5.22556 13.7489 5.48709C13.9639 5.22218 14.8705 4.23191 16.3722 4.23191C16.9822 4.85061 16.6897 6.4799 16.4572 7.2738C17.1539 8.07364 17.5639 9.02243 17.5639 10.0042C17.5639 12.2869 15.9772 13.9687 12.6522 14.3182C13.5672 14.8032 14.2347 16.1659 14.2347 17.1926V19.5066C14.2347 19.5946 14.2155 19.6581 14.2055 19.7334C18.1022 18.3462 20.9014 14.5882 20.9014 10.1566C20.9014 4.54761 16.4239 0 10.9014 0Z" fill="white"/>
</svg>

