<svg width="21" height="20" viewBox="0 0 21 20" fill="none" xmlns="http://www.w3.org/2000/svg">
<path d="M18.8088 0H2.44513C1.44059 0 0.626953 0.813636 0.626953 1.81818V18.1818C0.626953 19.1864 1.44059 20 2.44513 20H18.8088C19.8133 20 20.627 19.1864 20.627 18.1818V1.81818C20.627 0.813636 19.8133 0 18.8088 0ZM17.4833 15.4545H12.0915V15.1518L13.3542 14.0409V7.7L10.2533 15.4545H9.76877L6.30877 7.63909V13.1727L7.89059 15.1518V15.4545H3.77059V15.1518L5.40604 13.1727V6.58909L3.95241 4.77182C3.95241 4.77182 3.95241 4.50909 3.95241 4.55H7.93059L11.0206 11.2345L13.686 4.55H17.4624V4.77182L16.0815 5.93273V14.0409L17.4833 15.1518V15.4545Z" fill="white"/>
</svg>
