<svg width="20" height="18" viewBox="0 0 20 18" fill="none" xmlns="http://www.w3.org/2000/svg">
<path fill-rule="evenodd" clip-rule="evenodd" d="M15.3196 17.1495C15.5882 17.3391 15.9332 17.3868 16.2428 17.2709C16.5496 17.1536 16.7773 16.889 16.8455 16.5686C17.5696 13.1663 19.3273 4.55206 19.986 1.45793C20.0351 1.22338 19.9533 0.98065 19.7705 0.825193C19.5851 0.668373 19.3314 0.624736 19.1051 0.707919C15.6114 2.00203 4.84942 6.03981 0.450272 7.66665C0.17345 7.77029 -0.00791609 8.03756 0.000265836 8.33348C0.00981142 8.62803 0.208905 8.88303 0.493909 8.96894C2.46712 9.5594 5.05533 10.3803 5.05533 10.3803C5.05533 10.3803 6.26626 14.0349 6.89627 15.8922C6.97536 16.1268 7.15809 16.3095 7.39809 16.3722C7.63946 16.4349 7.89583 16.3695 8.07583 16.199C9.08902 15.2445 10.6531 13.7649 10.6531 13.7649C10.6531 13.7649 13.6314 15.9468 15.3196 17.1495ZM6.14489 9.91668L7.544 14.5313L7.85628 11.609L16.3409 3.95751C16.4309 3.87569 16.4432 3.73932 16.3682 3.64387C16.2946 3.54841 16.1568 3.52523 16.0546 3.58932L6.14626 9.91941L6.14489 9.91668Z" fill="white"/>
</svg>

