<svg width="21" height="17" viewBox="0 0 21 17" fill="none" xmlns="http://www.w3.org/2000/svg">
<path d="M20.3525 1.92377C19.6164 2.25068 18.8257 2.47067 17.9957 2.5699C18.8434 2.06223 19.4933 1.25841 19.7995 0.299989C19.0072 0.769971 18.1288 1.1115 17.1934 1.2961C16.445 0.498442 15.3789 0 14.1989 0C11.9329 0 10.096 1.83762 10.096 4.10292C10.096 4.42445 10.1329 4.73828 10.2022 5.0375C6.79229 4.86674 3.76933 3.23295 1.74479 0.749971C1.3925 1.3561 1.1902 2.06069 1.1902 2.81374C1.1902 4.23676 1.91402 5.49287 3.01474 6.22822C2.34246 6.20669 1.70941 6.02208 1.15635 5.71517C1.15635 5.73286 1.15635 5.74901 1.15635 5.7667C1.15635 7.75509 2.57015 9.41349 4.44777 9.78963C4.10393 9.88347 3.74087 9.93347 3.36627 9.93347C3.10243 9.93347 2.84475 9.90731 2.59476 9.86039C3.11705 11.4903 4.63237 12.6772 6.42769 12.7103C5.0239 13.811 3.25474 14.4671 1.33173 14.4671C1.00098 14.4671 0.674065 14.4479 0.352539 14.4094C2.16862 15.5733 4.32469 16.2525 6.6423 16.2525C14.1897 16.2525 18.3157 10.0004 18.3157 4.57829C18.3157 4.4006 18.3118 4.22368 18.3042 4.04754C19.1064 3.46833 19.8026 2.74605 20.3525 1.92377Z" fill="white"/>
</svg>

