<svg width="20" height="20" viewBox="0 0 20 20" fill="none" xmlns="http://www.w3.org/2000/svg">
  <g clip-path="url(#clip0_3068_163478)">
    <path d="M10 20C15.5228 20 20 15.5228 20 10C20 4.47715 15.5228 0 10 0C4.47715 0 0 4.47715 0 10C0 15.5228 4.47715 20 10 20Z" fill="#2D374B" />
    <path d="M9.33321 2.84157C9.74581 2.60839 10.2542 2.60839 10.6668 2.84157L16.0001 5.85569C16.4125 6.08879 16.6666 6.51949 16.6666 6.98562V13.0144C16.6666 13.4806 16.4125 13.9113 16.0001 14.1444L10.6668 17.1585C10.2542 17.3917 9.74581 17.3917 9.33321 17.1585L3.99991 14.1444C3.58747 13.9113 3.33337 13.4806 3.33337 13.0144V6.98562C3.33337 6.51949 3.58747 6.08879 3.99991 5.85569L9.33321 2.84157Z" fill="#96BEDC" />
    <path d="M9.79995 3.62339C9.93748 3.54562 10.107 3.54562 10.2445 3.62339L15.5223 6.60699C15.6597 6.68469 15.7444 6.82826 15.7444 6.98359V12.9512C15.7444 13.1066 15.6597 13.2501 15.5223 13.3278L10.2445 16.3114C10.107 16.3892 9.93748 16.3892 9.79995 16.3114L4.52218 13.3278C4.38475 13.2501 4.30005 13.1066 4.30005 12.9512V6.98359C4.30005 6.82826 4.38475 6.68469 4.52218 6.60699L9.79995 3.62339Z" fill="#2D374B" />
    <path d="M4.79697 14.5948L3.84537 14.057C3.52901 13.8782 3.33337 13.5429 3.33337 13.1795L6.90844 7.82596C7.29834 7.2421 7.96294 6.8902 8.67564 6.8902H9.70554L4.79697 14.5948Z" fill="#FAFAFB" />
    <path d="M7.0688 15.8788L5.3573 14.9115L10.3444 6.8902H12.5055L7.0688 15.8788Z" fill="#FAFAFB" />
    <path fill-rule="evenodd" clip-rule="evenodd" d="M14.0179 14.1783L12.121 15.2506L10.0555 12.0877L11.3222 10.0109L14.0179 14.1783ZM15.7444 12.0328V12.9512C15.7444 13.1066 15.6598 13.2501 15.5223 13.3278L14.5585 13.8727L11.6889 9.36393L12.7888 7.55896L15.7444 12.0328Z" fill="#28A0F0" />
  </g>
  <defs>
    <clipPath id="clip0_3068_163478">
      <rect width="20" height="20" fill="white" />
    </clipPath>
  </defs>
</svg>
