<svg width="24" height="24" viewBox="0 0 24 24" fill="none" xmlns="http://www.w3.org/2000/svg">
  <path fill-rule="evenodd" clip-rule="evenodd" d="M10.7536 5.24606C10.9488 5.44132 10.9488 5.7579 10.7536 5.95316L5.20711 11.4996H20C20.2761 11.4996 20.5 11.7235 20.5 11.9996C20.5 12.2758 20.2761 12.4996 20 12.4996H5.20711L10.7536 18.0461C10.9488 18.2413 10.9488 18.5579 10.7536 18.7532C10.5583 18.9484 10.2417 18.9484 10.0464 18.7532L3.64645 12.3532C3.55268 12.2594 3.5 12.1322 3.5 11.9996C3.5 11.867 3.55268 11.7398 3.64645 11.6461L10.0464 5.24606C10.2417 5.05079 10.5583 5.05079 10.7536 5.24606Z" fill="currentColor" />
</svg>

