<svg width="12" height="14" viewBox="0 0 12 14" fill="currentColor" xmlns="http://www.w3.org/2000/svg">
<path d="M2.66667 6.33331H4V7.66665H2.66667V6.33331ZM12 2.99998V12.3333C12 13.0666 11.4 13.6666 10.6667 13.6666H1.33333C0.593333 13.6666 0 13.0666 0 12.3333L0.00666666 2.99998C0.00666666 2.26665 0.593333 1.66665 1.33333 1.66665H2V0.333313H3.33333V1.66665H8.66667V0.333313H10V1.66665H10.6667C11.4 1.66665 12 2.26665 12 2.99998ZM1.33333 4.33331H10.6667V2.99998H1.33333V4.33331ZM10.6667 12.3333V5.66665H1.33333V12.3333H10.6667ZM8 7.66665H9.33333V6.33331H8V7.66665ZM5.33333 7.66665H6.66667V6.33331H5.33333V7.66665Z" fill="currentColor"/>
</svg>
