<svg width="24" height="25" viewBox="0 0 24 25" fill="none" xmlns="http://www.w3.org/2000/svg">
  <path
    d="M13.7992 4.48018C13.7992 5.47429 12.9933 6.28018 11.9992 6.28018C11.0051 6.28018 10.1992 5.47429 10.1992 4.48018C10.1992 3.48606 11.0051 2.68018 11.9992 2.68018C12.9933 2.68018 13.7992 3.48606 13.7992 4.48018Z"
    fill="white" />
  <path
    d="M13.7992 12.4802C13.7992 13.4743 12.9933 14.2802 11.9992 14.2802C11.0051 14.2802 10.1992 13.4743 10.1992 12.4802C10.1992 11.4861 11.0051 10.6802 11.9992 10.6802C12.9933 10.6802 13.7992 11.4861 13.7992 12.4802Z"
    fill="white" />
  <path
    d="M11.9992 22.2802C12.9933 22.2802 13.7992 21.4743 13.7992 20.4802C13.7992 19.4861 12.9933 18.6802 11.9992 18.6802C11.0051 18.6802 10.1992 19.4861 10.1992 20.4802C10.1992 21.4743 11.0051 22.2802 11.9992 22.2802Z"
    fill="white" />
</svg>
