<svg width="21" height="15" viewBox="0 0 21 15" fill="currentColor" xmlns="http://www.w3.org/2000/svg">
<path d="M17.3067 1.63925C15.5753 0.247822 12.8374 0.0121079 12.7217 0.00210795C12.5388 -0.0136063 12.3653 0.0899653 12.2903 0.257108C12.2874 0.262822 12.1346 0.706394 11.9867 1.13425C13.9988 1.48639 15.366 2.26782 15.4388 2.31068C15.7803 2.50925 15.8946 2.94711 15.6953 3.28782C15.5631 3.51496 15.3238 3.64211 15.0781 3.64211C14.956 3.64211 14.8331 3.61139 14.7203 3.54568C14.7003 3.53354 12.6946 2.39211 10.0796 2.39211C7.46384 2.39211 5.45741 3.53425 5.43741 3.54568C5.0967 3.74354 4.65955 3.62711 4.4617 3.28568C4.26384 2.94568 4.37884 2.50925 4.71884 2.31068C4.7917 2.26782 6.16384 1.48354 8.1817 1.13211C8.02598 0.699251 7.86884 0.262822 7.86598 0.257108C7.79098 0.089251 7.61741 -0.0164635 7.43455 0.00210795C7.31884 0.0113937 4.58098 0.247108 2.8267 1.65782C1.90955 2.50497 0.078125 7.45782 0.078125 11.74C0.078125 11.8157 0.0974107 11.8893 0.135268 11.955C1.40027 14.1764 4.84884 14.7578 5.63455 14.7828C5.63955 14.7835 5.64384 14.7835 5.64813 14.7835C5.7867 14.7835 5.91741 14.7171 5.99955 14.605L6.84955 13.4535C4.98527 13.0043 3.99955 12.2978 3.94027 12.2542C3.62313 12.0207 3.55455 11.5735 3.78813 11.2557C4.02098 10.9393 4.4667 10.8693 4.78384 11.1014C4.81027 11.1185 6.62955 12.3921 10.0781 12.3921C13.5403 12.3921 15.3546 11.1135 15.3724 11.1007C15.6896 10.8707 16.1367 10.94 16.3688 11.2585C16.6003 11.5757 16.5331 12.02 16.2174 12.2528C16.1581 12.2964 15.1774 13.0014 13.3174 13.4507L14.1567 14.6042C14.2388 14.7171 14.3696 14.7828 14.5081 14.7828C14.5131 14.7828 14.5174 14.7828 14.5217 14.7821C15.3081 14.7571 18.7567 14.1757 20.021 11.9542C20.0588 11.8885 20.0781 11.815 20.0781 11.7393C20.0781 7.45782 18.2467 2.50497 17.3067 1.63925ZM7.22098 10.2493C6.4317 10.2493 5.79241 9.44996 5.79241 8.46354C5.79241 7.47711 6.4317 6.67782 7.22098 6.67782C8.01027 6.67782 8.64955 7.47711 8.64955 8.46354C8.64955 9.44996 8.01027 10.2493 7.22098 10.2493ZM12.9353 10.2493C12.146 10.2493 11.5067 9.44996 11.5067 8.46354C11.5067 7.47711 12.146 6.67782 12.9353 6.67782C13.7246 6.67782 14.3638 7.47711 14.3638 8.46354C14.3638 9.44996 13.7246 10.2493 12.9353 10.2493Z" fill="currentColor"/>
</svg>

