<svg width="20" height="15" viewBox="0 0 20 15" fill="currentColor" xmlns="http://www.w3.org/2000/svg">
<path d="M9.00226 12.0365C9.3147 12.0365 9.59589 12.2865 9.59589 12.6302C9.59589 12.9426 9.34594 13.2238 9.00226 13.2238C8.68983 13.2238 8.40863 12.9738 8.40863 12.6302C8.40863 12.2865 8.68983 12.0365 9.00226 12.0365ZM18.1879 8.41228C17.8754 8.41228 17.5942 8.16234 17.5942 7.81866C17.5942 7.50622 17.8442 7.22503 18.1879 7.22503C18.5003 7.22503 18.7815 7.47498 18.7815 7.81866C18.7815 8.13109 18.5003 8.41228 18.1879 8.41228ZM18.1879 6.00653C17.1881 6.00653 16.3757 6.81886 16.3757 7.81866C16.3757 8.00612 16.407 8.19358 16.4695 8.38104L10.502 11.5679C10.1583 11.068 9.59589 10.7868 9.00226 10.7868C8.3149 10.7868 7.69003 11.193 7.3776 11.7866L2.0037 8.97467C1.44132 8.66223 1.00391 7.75617 1.06639 6.88135C1.09764 6.44394 1.25385 6.10026 1.47256 5.97529C1.62878 5.88155 1.785 5.9128 2.0037 6.00653L2.03494 6.03777C3.47215 6.78762 8.12744 9.22462 8.3149 9.31835C8.62734 9.44332 8.78356 9.50581 9.3147 9.25586L18.9377 4.25689C19.0939 4.1944 19.2502 4.06943 19.2502 3.85072C19.2502 3.56953 18.969 3.44456 18.969 3.44456C18.4066 3.19461 17.563 2.78844 16.7507 2.41352C15.001 1.60118 13.0014 0.663877 12.1266 0.195224C11.3768 -0.210943 10.7519 0.132737 10.6582 0.195224L10.4395 0.288955C6.47153 2.28854 1.22261 4.88176 0.910176 5.06922C0.379035 5.38166 0.0353555 6.03777 0.00411193 6.85011C-0.0583752 8.13109 0.59774 9.47457 1.53505 9.94322L7.22138 12.8801C7.34635 13.7549 8.12744 14.4423 9.00226 14.4423C10.0021 14.4423 10.7831 13.6612 10.8144 12.6614L17.0631 9.2871C17.3755 9.53705 17.7817 9.66203 18.1879 9.66203C19.1877 9.66203 20 8.84969 20 7.8499C20 6.81886 19.1877 6.00653 18.1879 6.00653Z" fill="currentColor"/>
</svg>
