<svg width="24" height="24" viewBox="0 0 24 24" fill="none" xmlns="http://www.w3.org/2000/svg">
  <path fill-rule="evenodd" clip-rule="evenodd" d="M13.2192 5.84131L8.48016 12.1601H10.8098C11.4156 12.1601 11.87 12.7143 11.7512 13.3084L10.7811 18.1589L15.5202 11.8401H13.1905C12.5847 11.8401 12.1303 11.2859 12.2491 10.6918L13.2192 5.84131ZM13.0417 3.9447C13.655 3.12695 14.9515 3.70665 14.7511 4.70897L13.5808 10.5601H16.1602C16.9512 10.5601 17.4028 11.4632 16.9282 12.0961L10.9586 20.0555C10.3453 20.8732 9.0488 20.2935 9.24926 19.2912L10.4195 13.4401H7.84016C7.04908 13.4401 6.59751 12.537 7.07216 11.9041L13.0417 3.9447Z" fill="#F5F5F5" />
</svg>
