<svg width="172" height="24" viewBox="0 0 172 24" fill="none" xmlns="http://www.w3.org/2000/svg">
  <g clip-path="url(#clip0_5524_172)">
    <path d="M34.8226 15.1347C34.8226 19.3959 31.7859 22.4816 27.6471 22.4816C23.5328 22.4816 20.4961 19.3959 20.4961 15.1347C20.4961 10.898 23.5328 7.81226 27.6471 7.81226C31.7859 7.81226 34.8226 10.898 34.8226 15.1347ZM31.492 15.1347C31.492 12.2694 29.6798 10.8 27.6226 10.8C25.6145 10.8 23.7532 12.2694 23.7532 15.1347C23.7532 18 25.59 19.5429 27.6226 19.5429C29.6798 19.5429 31.492 18.0245 31.492 15.1347Z" fill="white" />
    <path d="M40.7035 22.0653H37.4219V8.22858H40.63V10.0653C41.5362 8.47348 43.177 7.81226 44.7198 7.81226C48.0994 7.81226 49.7158 10.2612 49.7158 13.298V22.0408H46.4341V13.8857C46.4341 12.1714 45.6749 10.8245 43.5933 10.8245C41.7076 10.8245 40.728 12.2694 40.728 14.0816V22.0653H40.7035Z" fill="white" />
    <path d="M65.9511 19.5428C65.9511 20.7918 66.0735 21.8448 66.098 22.0653H62.9388C62.8898 21.7469 62.7919 20.8408 62.7919 20.2775C62.1307 21.453 60.6858 22.4081 58.7266 22.4081C54.7592 22.4081 52.0898 19.2734 52.0898 15.1101C52.0898 11.1428 54.7837 7.86117 58.6776 7.86117C61.1021 7.86117 62.3021 8.96321 62.7429 9.84484V1.51831H65.9511V19.5428ZM59.1184 19.5183C61.2735 19.5183 62.7919 17.7306 62.7919 15.0857C62.7919 12.4408 61.3225 10.7999 59.1674 10.7999C57.0123 10.7999 55.4205 12.4652 55.4205 15.1101C55.4205 17.755 56.8654 19.5183 59.1184 19.5183Z" fill="white" />
    <path d="M73.2752 14.2041V22.0653H69.8711V1.93469H77.3405C81.2099 1.93469 83.7568 4.5551 83.7568 8.05714C83.7568 11.6082 81.2099 14.1796 77.3405 14.1796H73.2752V14.2041ZM76.8262 11.1918C78.9813 11.1918 80.2793 9.99183 80.2793 8.10612C80.2793 6.17143 78.9813 4.94694 76.8262 4.94694H73.2752V11.1918H76.8262Z" fill="white" />
    <path d="M93.9684 11.5102C93.601 11.4612 93.2337 11.4367 92.8908 11.4367C90.3439 11.4367 89.1684 12.9061 89.1684 15.502V22.0898H85.8867V8.22856H89.0949V10.4326C89.7561 8.93876 91.2745 8.05713 93.1112 8.05713C93.503 8.05713 93.8459 8.10611 93.9928 8.1306V11.5102H93.9684Z" fill="white" />
    <path d="M109.369 15.1347C109.369 19.3959 106.333 22.4816 102.194 22.4816C98.0797 22.4816 95.043 19.3959 95.043 15.1347C95.043 10.898 98.0797 7.81226 102.194 7.81226C106.333 7.81226 109.369 10.898 109.369 15.1347ZM106.039 15.1347C106.039 12.2694 104.227 10.8 102.17 10.8C100.161 10.8 98.3001 12.2694 98.3001 15.1347C98.3001 18 100.137 19.5429 102.17 19.5429C104.227 19.5429 106.039 18.0245 106.039 15.1347Z" fill="white" />
    <path d="M116.156 8.22856H119.021V11.1428H116.156V17.5592C116.156 18.7837 116.694 19.2979 117.919 19.2979C118.384 19.2979 118.923 19.2245 119.045 19.1755V21.8939C118.85 21.9673 118.213 22.2122 117.037 22.2122C114.49 22.2122 112.898 20.6694 112.898 18.0979V11.1673H110.352V8.22856H111.062C112.531 8.22856 113.192 7.29794 113.192 6.07345V3.99182H116.18V8.22856H116.156Z" fill="white" />
    <path d="M134.67 15.1347C134.67 19.3959 131.634 22.4816 127.495 22.4816C123.38 22.4816 120.344 19.3959 120.344 15.1347C120.344 10.898 123.38 7.81226 127.495 7.81226C131.634 7.81226 134.67 10.898 134.67 15.1347ZM131.34 15.1347C131.34 12.2694 129.527 10.8 127.47 10.8C125.462 10.8 123.601 12.2694 123.601 15.1347C123.601 18 125.438 19.5429 127.47 19.5429C129.527 19.5429 131.34 18.0245 131.34 15.1347Z" fill="white" />
    <path d="M139.615 15.1347C139.615 17.9265 141.402 19.4694 143.484 19.4694C145.639 19.4694 146.643 17.9755 146.937 16.9225L149.827 17.9755C149.166 20.1306 147.109 22.4816 143.46 22.4816C139.394 22.4816 136.309 19.3225 136.309 15.1347C136.309 10.8735 139.394 7.81226 143.386 7.81226C147.109 7.81226 149.141 10.1388 149.729 12.3674L146.766 13.4449C146.447 12.2204 145.517 10.849 143.411 10.849C141.402 10.849 139.615 12.3674 139.615 15.1347Z" fill="white" />
    <path d="M165.526 15.1347C165.526 19.3959 162.489 22.4816 158.35 22.4816C154.236 22.4816 151.199 19.3959 151.199 15.1347C151.199 10.898 154.236 7.81226 158.35 7.81226C162.489 7.81226 165.526 10.898 165.526 15.1347ZM162.195 15.1347C162.195 12.2694 160.383 10.8 158.326 10.8C156.318 10.8 154.456 12.2694 154.456 15.1347C154.456 18 156.293 19.5429 158.326 19.5429C160.383 19.5429 162.195 18.0245 162.195 15.1347Z" fill="white" />
    <path d="M168.148 22.0653V1.51831H171.43V22.0653H168.148Z" fill="white" />
    <path d="M11.7557 8.86529C11.3884 8.8408 10.5312 8.8408 10.1394 8.86529V12.2204C10.3108 12.1959 10.972 12.1714 11.1435 12.1714C11.2414 12.1714 11.3639 12.1714 11.4618 12.1959C12.4904 12.2694 13.4455 12.7592 14.1067 13.5673C14.768 14.351 15.1108 15.3796 15.0129 16.4081C14.8659 18.2694 13.421 19.7143 11.6577 19.9592C11.6333 19.9592 11.6088 19.9592 11.5843 19.9592C11.4618 19.9837 11.3639 19.9837 11.2414 19.9837C11.2169 19.9837 11.1924 19.9837 11.168 19.9837C11.0455 19.9837 10.9231 19.9837 10.8006 19.9837C7.59244 19.7143 7.07816 16.653 6.9802 16.6041L5.80469 20.9633C7.00469 22.2612 8.6455 23.1428 10.5557 23.2898C10.7516 23.3143 10.9475 23.3143 11.1435 23.3143C11.2904 23.3143 11.4373 23.3143 11.5843 23.2898C11.6088 23.2898 11.6577 23.2898 11.6822 23.2898C11.8292 23.2898 11.9516 23.2653 12.0986 23.2408C12.0986 23.2408 12.0986 23.2408 12.1231 23.2408C12.27 23.2163 12.4414 23.1918 12.5884 23.1673H12.6129C15.6986 22.5061 18.0986 19.9102 18.368 16.653C18.6863 12.6857 15.7231 9.18366 11.7557 8.86529Z" fill="white" />
    <path d="M16.5061 5.77957C16.4816 5.65712 16.4816 5.53467 16.4571 5.41222C16.4571 5.36324 16.4327 5.28977 16.4327 5.24079C16.4082 5.14284 16.3837 5.02039 16.3592 4.92243C16.3347 4.84896 16.3347 4.79998 16.3102 4.72651C16.2857 4.62855 16.2367 4.53059 16.2122 4.43263C16.1878 4.35916 16.1633 4.31018 16.1388 4.23671C16.0898 4.13875 16.0653 4.04079 16.0163 3.94284C15.9918 3.86937 15.9429 3.82039 15.9184 3.74692C15.8694 3.64896 15.8204 3.57549 15.7714 3.47753C15.7224 3.40406 15.698 3.35508 15.649 3.28161C15.6 3.20814 15.551 3.11018 15.4776 3.03671C15.4286 2.96324 15.3796 2.91426 15.3306 2.84079C15.2816 2.76733 15.2082 2.69386 15.1592 2.62039C15.0612 2.49794 14.9388 2.37549 14.8163 2.25304C14.7673 2.20406 14.6939 2.15508 14.6449 2.1061C14.5714 2.03263 14.498 1.98365 14.4245 1.91018C14.3755 1.8612 14.302 1.81222 14.2286 1.76324C14.1551 1.71426 14.0816 1.64079 13.9837 1.59181C13.9102 1.54284 13.8612 1.51835 13.7878 1.46937C13.7143 1.42039 13.6163 1.37141 13.5429 1.32243C13.4694 1.27345 13.3959 1.24896 13.3469 1.22447C13.249 1.17549 13.151 1.12651 13.0776 1.10202C13.0041 1.07753 12.9306 1.05304 12.8571 1.00406C12.7592 0.95508 12.6612 0.93059 12.5633 0.9061C12.4898 0.881611 12.4163 0.857121 12.3673 0.832631C12.2449 0.808141 12.1224 0.783651 12.0245 0.759162C11.9755 0.734672 11.902 0.734672 11.8531 0.710182C11.6327 0.734672 11.4612 0.710182 11.2653 0.685692C9.74694 0.563243 8.25306 1.02855 7.07755 2.03263C6.09796 2.86528 5.43674 3.96733 5.19184 5.19181L0 23.3143H3.47755L4.0898 21.1837L8.57143 5.51018C8.71837 5.14284 8.93878 4.82447 9.25714 4.55508C9.69796 4.18773 10.2367 3.99181 10.8245 3.99181C10.898 3.99181 10.9469 3.99181 11.0204 3.99181C12.3429 4.08977 13.3469 5.26528 13.2245 6.58773C13.2245 6.61222 13.2245 6.63671 13.2245 6.63671C13.151 7.24896 12.8571 7.81222 12.3918 8.22855C12.3429 8.27753 12.2939 8.30202 12.2449 8.351C13.4694 8.57141 14.5959 9.01222 15.5755 9.64896C16.1388 8.84079 16.4816 7.88569 16.5551 6.88161C16.5551 6.51426 16.5551 6.14692 16.5061 5.77957Z" fill="white" />
  </g>
  <defs>
    <clipPath id="clip0_5524_172">
      <rect width="171.429" height="24" fill="white" />
    </clipPath>
  </defs>
</svg>
