<svg width="377" height="137" viewBox="0 0 377 137" fill="none" xmlns="http://www.w3.org/2000/svg">
<line x1="1" y1="69.9998" x2="376" y2="69.9997" stroke="white" stroke-opacity="0.2" stroke-width="2" stroke-linecap="round" stroke-dasharray="6 10"/>
<g filter="url(#filter0_d_4180_314682)">
<path d="M297.631 8.5C297.631 34.0272 188.5 52.9453 188.5 67.9998C188.5 81.0906 89.9113 104.936 89.9112 128.5" stroke="#E7AC5C" stroke-linecap="round"/>
</g>
<path d="M91.3984 128C97.9697 82.9998 130.922 86.6968 186.637 68.3748C242.121 50.1283 295.151 33.8748 297.564 8.00009" stroke="#40749B" stroke-linecap="round"/>
<path d="M302.586 127.998C302.586 101.707 243.505 82.3985 186.207 69.8531C111.569 52.1805 86.1825 48.4714 86.183 8.21708" stroke="#40749B" stroke-linecap="round"/>
<path d="M176.319 94.1076L186.782 57.6622C186.991 57.1217 187.34 56.6334 187.793 56.2498C188.447 55.6917 189.258 55.3953 190.104 55.3953C190.2 55.3953 190.304 55.3953 190.4 55.404C192.371 55.561 193.835 57.296 193.678 59.2665C193.6 60.2169 193.155 61.0888 192.432 61.7078C191.917 62.1438 191.307 62.4228 190.653 62.5187C190.391 62.5623 189.415 62.571 189.136 62.5449V67.506C189.232 67.506 190.034 67.5147 190.121 67.5147C192.144 67.5147 194.079 66.8085 195.631 65.4832C197.367 64.0097 198.43 61.9433 198.613 59.6676C198.997 54.9768 195.492 50.8527 190.801 50.4691C188.526 50.286 186.32 50.9922 184.585 52.4744C183.137 53.7038 182.161 55.3517 181.768 57.1827L171.166 94.1076H176.319Z" fill="white"/>
<path d="M198.379 59.101C196.818 58.6389 195.179 58.5168 193.601 58.1768C193.679 58.5255 193.714 58.8917 193.679 59.2753C193.601 60.2257 193.156 61.0976 192.432 61.7167C191.918 62.1526 191.308 62.4316 190.654 62.5275C190.392 62.5711 189.416 62.5798 189.137 62.5537V67.5148C189.233 67.5148 190.035 67.5235 190.122 67.5235C192.145 67.5235 194.08 66.8173 195.632 65.492C197.367 64.0185 198.431 61.9521 198.614 59.6764C198.632 59.5108 198.632 59.3451 198.64 59.1882C198.562 59.1533 198.475 59.1271 198.379 59.101Z" fill="url(#paint0_linear_4180_314682)"/>
<path d="M191.527 62.5974C190.96 62.5538 189.696 62.5538 189.138 62.5886V67.5759C189.4 67.541 190.376 67.5149 190.646 67.5149C190.803 67.5149 190.969 67.5236 191.126 67.5323C192.669 67.6544 194.064 68.378 195.067 69.5551C196.07 70.7322 196.549 72.2318 196.427 73.7751C196.2 76.5303 194.064 78.6926 191.422 79.0414C191.388 79.0414 191.361 79.0501 191.326 79.0588C191.161 79.0762 190.995 79.085 190.829 79.0937C190.795 79.0937 190.751 79.0937 190.716 79.0937C190.542 79.0937 190.367 79.0937 190.184 79.0762C185.406 78.6752 184.648 74.1239 184.5 74.0715L182.738 80.5672C184.508 82.4941 186.976 83.7932 189.783 84.0199C190.08 84.0461 190.367 84.0548 190.664 84.0548C190.891 84.0548 191.109 84.0461 191.326 84.0286C191.379 84.0286 191.431 84.0199 191.483 84.0199C191.693 84.0025 191.902 83.985 192.102 83.9589C192.111 83.9589 192.12 83.9589 192.129 83.9589C192.364 83.924 192.591 83.8891 192.826 83.8368C192.835 83.8368 192.844 83.8368 192.852 83.8281C197.386 82.8777 200.97 79.0326 201.362 74.1849C201.842 68.2734 197.43 63.0769 191.527 62.5974Z" fill="url(#paint1_linear_4180_314682)"/>
<defs>
<filter id="filter0_d_4180_314682" x="81.4121" y="0" width="224.719" height="137" filterUnits="userSpaceOnUse" color-interpolation-filters="sRGB">
<feFlood flood-opacity="0" result="BackgroundImageFix"/>
<feColorMatrix in="SourceAlpha" type="matrix" values="0 0 0 0 0 0 0 0 0 0 0 0 0 0 0 0 0 0 127 0" result="hardAlpha"/>
<feOffset/>
<feGaussianBlur stdDeviation="4"/>
<feComposite in2="hardAlpha" operator="out"/>
<feColorMatrix type="matrix" values="0 0 0 0 0.94902 0 0 0 0 0.662745 0 0 0 0 0.290196 0 0 0 1 0"/>
<feBlend mode="normal" in2="BackgroundImageFix" result="effect1_dropShadow_4180_314682"/>
<feBlend mode="normal" in="SourceGraphic" in2="effect1_dropShadow_4180_314682" result="shape"/>
</filter>
<linearGradient id="paint0_linear_4180_314682" x1="190.326" y1="72.4658" x2="198.056" y2="48.5869" gradientUnits="userSpaceOnUse">
<stop offset="0.3866"/>
<stop offset="0.6153" stop-color="white" stop-opacity="0"/>
</linearGradient>
<linearGradient id="paint1_linear_4180_314682" x1="184.046" y1="71.4472" x2="213.96" y2="79.8465" gradientUnits="userSpaceOnUse">
<stop offset="0.107" stop-color="white"/>
<stop offset="0.4242" stop-color="white"/>
</linearGradient>
</defs>
</svg>
