<svg width="396" height="259" viewBox="0 0 396 259" fill="none" xmlns="http://www.w3.org/2000/svg">
<line x1="1" y1="-1" x2="257.017" y2="-1" transform="matrix(0.0117535 0.999931 -0.999875 0.0158538 198.531 1)" stroke="white" stroke-opacity="0.2" stroke-width="2" stroke-linecap="round" stroke-dasharray="6 10"/>
<g filter="url(#filter0_d_4961_186731)">
<path d="M8.66797 69.5977C89.2201 69.5977 151.183 133.851 198.688 133.851C239.997 133.851 312.976 201.562 387.332 201.562" stroke="#E7AC5C" stroke-linecap="round"/>
</g>
<path d="M387.336 196.952C313.244 169.665 246.514 185.977 188.698 164.684C131.121 143.479 82.4578 84.6704 8.67194 57.4963" stroke="#40749B" stroke-linecap="round"/>
<path d="M387.336 66.7163C304.374 66.7163 243.444 108.495 203.856 130.393C148.089 158.918 136.385 200.697 9.36034 200.697" stroke="#40749B" stroke-linecap="round"/>
<path d="M189.301 155.608L199.764 119.163C199.973 118.622 200.322 118.134 200.776 117.75C201.429 117.192 202.24 116.896 203.086 116.896C203.182 116.896 203.287 116.896 203.383 116.905C205.353 117.061 206.818 118.797 206.661 120.767C206.582 121.717 206.138 122.589 205.414 123.208C204.9 123.644 204.289 123.923 203.635 124.019C203.374 124.063 202.397 124.072 202.118 124.045V129.006C202.214 129.006 203.016 129.015 203.104 129.015C205.126 129.015 207.062 128.309 208.614 126.984C210.349 125.51 211.413 123.444 211.596 121.168C211.979 116.477 208.474 112.353 203.784 111.97C201.508 111.786 199.302 112.493 197.567 113.975C196.12 115.204 195.143 116.852 194.751 118.683L184.148 155.608H189.301Z" fill="white"/>
<path d="M211.363 120.601C209.803 120.139 208.163 120.017 206.585 119.677C206.664 120.026 206.699 120.392 206.664 120.776C206.585 121.726 206.141 122.598 205.417 123.217C204.902 123.653 204.292 123.932 203.638 124.028C203.377 124.072 202.4 124.08 202.121 124.054V129.015C202.217 129.015 203.019 129.024 203.106 129.024C205.129 129.024 207.065 128.318 208.617 126.992C210.352 125.519 211.416 123.453 211.599 121.177C211.616 121.011 211.616 120.846 211.625 120.689C211.546 120.654 211.459 120.628 211.363 120.601Z" fill="url(#paint0_linear_4961_186731)"/>
<path d="M204.511 124.098C203.945 124.054 202.68 124.054 202.122 124.089V129.076C202.384 129.042 203.36 129.015 203.631 129.015C203.788 129.015 203.953 129.024 204.11 129.033C205.654 129.155 207.049 129.879 208.051 131.056C209.054 132.233 209.534 133.732 209.411 135.276C209.185 138.031 207.049 140.193 204.407 140.542C204.372 140.542 204.346 140.551 204.311 140.559C204.145 140.577 203.98 140.585 203.814 140.594C203.779 140.594 203.735 140.594 203.701 140.594C203.526 140.594 203.352 140.594 203.169 140.577C198.391 140.176 197.632 135.624 197.484 135.572L195.723 142.068C197.493 143.995 199.96 145.294 202.768 145.52C203.064 145.547 203.352 145.555 203.648 145.555C203.875 145.555 204.093 145.547 204.311 145.529C204.363 145.529 204.415 145.52 204.468 145.52C204.677 145.503 204.886 145.486 205.087 145.459C205.096 145.459 205.104 145.459 205.113 145.459C205.348 145.424 205.575 145.39 205.811 145.337C205.819 145.337 205.828 145.337 205.837 145.329C210.371 144.378 213.954 140.533 214.346 135.685C214.826 129.774 210.414 124.577 204.511 124.098Z" fill="url(#paint1_linear_4961_186731)"/>
<defs>
<filter id="filter0_d_4961_186731" x="0.167969" y="61.0977" width="395.664" height="148.964" filterUnits="userSpaceOnUse" color-interpolation-filters="sRGB">
<feFlood flood-opacity="0" result="BackgroundImageFix"/>
<feColorMatrix in="SourceAlpha" type="matrix" values="0 0 0 0 0 0 0 0 0 0 0 0 0 0 0 0 0 0 127 0" result="hardAlpha"/>
<feOffset/>
<feGaussianBlur stdDeviation="4"/>
<feComposite in2="hardAlpha" operator="out"/>
<feColorMatrix type="matrix" values="0 0 0 0 0.94902 0 0 0 0 0.662745 0 0 0 0 0.290196 0 0 0 1 0"/>
<feBlend mode="normal" in2="BackgroundImageFix" result="effect1_dropShadow_4961_186731"/>
<feBlend mode="normal" in="SourceGraphic" in2="effect1_dropShadow_4961_186731" result="shape"/>
</filter>
<linearGradient id="paint0_linear_4961_186731" x1="203.31" y1="133.966" x2="211.041" y2="110.087" gradientUnits="userSpaceOnUse">
<stop offset="0.3866"/>
<stop offset="0.6153" stop-color="white" stop-opacity="0"/>
</linearGradient>
<linearGradient id="paint1_linear_4961_186731" x1="197.031" y1="132.948" x2="226.944" y2="141.347" gradientUnits="userSpaceOnUse">
<stop offset="0.107" stop-color="white"/>
<stop offset="0.4242" stop-color="white"/>
</linearGradient>
</defs>
</svg>
