<svg width="24" height="24" viewBox="0 0 24 24" fill="none" xmlns="http://www.w3.org/2000/svg">
  <path d="M3.43451 17.8344C3.12209 18.1468 3.12209 18.6533 3.43451 18.9657C3.74693 19.2782 4.25346 19.2782 4.56588 18.9657L10.9659 12.5657C11.2783 12.2533 11.2783 11.7468 10.9659 11.4344L4.56588 5.03436C4.25346 4.72194 3.74693 4.72194 3.43451 5.03436C3.12209 5.34678 3.12209 5.85332 3.43451 6.16573L9.26883 12L3.43451 17.8344Z" fill="#F5F5F5" />
  <path d="M13.0345 17.8344C12.7221 18.1468 12.7221 18.6533 13.0345 18.9657C13.3469 19.2782 13.8535 19.2782 14.1659 18.9657L20.5659 12.5657C20.8783 12.2533 20.8783 11.7468 20.5659 11.4344L14.1659 5.03436C13.8535 4.72194 13.3469 4.72194 13.0345 5.03436C12.7221 5.34678 12.7221 5.85332 13.0345 6.16573L18.8688 12L13.0345 17.8344Z" fill="#F5F5F5" />
  <path d="M8.0002 17.8344C7.68778 18.1468 7.68778 18.6533 8.0002 18.9657C8.31262 19.2782 8.81915 19.2782 9.13157 18.9657L15.5316 12.5657C15.844 12.2533 15.844 11.7468 15.5316 11.4344L9.13157 5.03436C8.81915 4.72194 8.31261 4.72194 8.0002 5.03436C7.68778 5.34678 7.68778 5.85332 8.0002 6.16573L13.8345 12L8.0002 17.8344Z" fill="#F5F5F5" />
</svg>
