<svg width="24" height="24" viewBox="0 0 24 24" fill="none" xmlns="http://www.w3.org/2000/svg">
  <path d="M13.0341 17.8343C12.7217 18.1467 12.7217 18.6533 13.0341 18.9657C13.3465 19.2781 13.8531 19.2781 14.1655 18.9657L20.5655 12.5657C20.8779 12.2533 20.8779 11.7467 20.5655 11.4343L14.1655 5.0343C13.8531 4.72188 13.3465 4.72188 13.0341 5.0343C12.7217 5.34672 12.7217 5.85325 13.0341 6.16567L18.8684 12L13.0341 17.8343Z" fill="#737373" />
  <path d="M3.43451 17.8343C3.12209 18.1467 3.12209 18.6533 3.43451 18.9657C3.74693 19.2781 4.25346 19.2781 4.56588 18.9657L10.9659 12.5657C11.2783 12.2533 11.2783 11.7467 10.9659 11.4343L4.56588 5.0343C4.25346 4.72188 3.74693 4.72188 3.43451 5.0343C3.12209 5.34672 3.12209 5.85325 3.43451 6.16567L9.26883 12L3.43451 17.8343Z" fill="#F5F5F5" />
  <path d="M7.99994 17.8343C7.68752 18.1467 7.68752 18.6533 7.99994 18.9657C8.31236 19.2781 8.81889 19.2781 9.13131 18.9657L15.5313 12.5657C15.8437 12.2533 15.8437 11.7467 15.5313 11.4343L9.13131 5.0343C8.81889 4.72188 8.31236 4.72188 7.99994 5.0343C7.68752 5.34672 7.68752 5.85325 7.99994 6.16567L13.8343 12L7.99994 17.8343Z" fill="#F5F5F5" />
</svg>
