<svg width="24" height="24" viewBox="0 0 24 24" fill="none" xmlns="http://www.w3.org/2000/svg">
  <path fill-rule="evenodd" clip-rule="evenodd" d="M13.2464 5.24654C13.4417 5.05128 13.7583 5.05128 13.9536 5.24654L20.3536 11.6465C20.4473 11.7403 20.5 11.8675 20.5 12.0001C20.5 12.1327 20.4473 12.2599 20.3536 12.3537L13.9536 18.7537C13.7583 18.9489 13.4417 18.9489 13.2464 18.7537C13.0512 18.5584 13.0512 18.2418 13.2464 18.0465L18.7929 12.5001H4C3.72386 12.5001 3.5 12.2762 3.5 12.0001C3.5 11.724 3.72386 11.5001 4 11.5001H18.7929L13.2464 5.95365C13.0512 5.75839 13.0512 5.44181 13.2464 5.24654Z" fill="#171717" />
</svg>
