<svg width="28" height="28" viewBox="0 0 28 28" fill="none" xmlns="http://www.w3.org/2000/svg">
  <path d="M12.9333 14C12.9333 13.4109 13.4109 12.9333 14 12.9333C14.5891 12.9333 15.0666 13.4109 15.0666 14C15.0666 14.5891 14.5891 15.0667 14 15.0667C13.4109 15.0667 12.9333 14.5891 12.9333 14Z" fill="white" />
  <path d="M18.2666 12.9333C17.6775 12.9333 17.2 13.4109 17.2 14C17.2 14.5891 17.6775 15.0667 18.2666 15.0667C18.8557 15.0667 19.3333 14.5891 19.3333 14C19.3333 13.4109 18.8557 12.9333 18.2666 12.9333Z" fill="white" />
  <path d="M21.4666 14C21.4666 13.4109 21.9442 12.9333 22.5333 12.9333C23.1224 12.9333 23.6 13.4109 23.6 14C23.6 14.5891 23.1224 15.0667 22.5333 15.0667C21.9442 15.0667 21.4666 14.5891 21.4666 14Z" fill="white" />
  <path d="M22.5333 17.2C21.9442 17.2 21.4666 17.6776 21.4666 18.2667C21.4666 18.8558 21.9442 19.3333 22.5333 19.3333C23.1224 19.3333 23.6 18.8558 23.6 18.2667C23.6 17.6776 23.1224 17.2 22.5333 17.2Z" fill="white" />
  <path d="M17.2 18.2667C17.2 17.6776 17.6775 17.2 18.2666 17.2C18.8557 17.2 19.3333 17.6776 19.3333 18.2667C19.3333 18.8558 18.8557 19.3333 18.2666 19.3333C17.6775 19.3333 17.2 18.8558 17.2 18.2667Z" fill="white" />
  <path d="M14 17.2C13.4109 17.2 12.9333 17.6776 12.9333 18.2667C12.9333 18.8558 13.4109 19.3333 14 19.3333C14.5891 19.3333 15.0666 18.8558 15.0666 18.2667C15.0666 17.6776 14.5891 17.2 14 17.2Z" fill="white" />
  <path d="M8.66663 18.2667C8.66663 17.6776 9.1442 17.2 9.7333 17.2C10.3224 17.2 10.8 17.6776 10.8 18.2667C10.8 18.8558 10.3224 19.3333 9.7333 19.3333C9.1442 19.3333 8.66663 18.8558 8.66663 18.2667Z" fill="white" />
  <path d="M5.46663 17.2C4.87753 17.2 4.39997 17.6776 4.39997 18.2667C4.39997 18.8558 4.87753 19.3333 5.46663 19.3333C6.05574 19.3333 6.5333 18.8558 6.5333 18.2667C6.5333 17.6776 6.05574 17.2 5.46663 17.2Z" fill="white" />
  <path d="M4.39997 22.5333C4.39997 21.9442 4.87753 21.4667 5.46663 21.4667C6.05574 21.4667 6.5333 21.9442 6.5333 22.5333C6.5333 23.1224 6.05574 23.6 5.46663 23.6C4.87753 23.6 4.39997 23.1224 4.39997 22.5333Z" fill="white" />
  <path d="M9.7333 21.4667C9.1442 21.4667 8.66663 21.9442 8.66663 22.5333C8.66663 23.1224 9.1442 23.6 9.7333 23.6C10.3224 23.6 10.8 23.1224 10.8 22.5333C10.8 21.9442 10.3224 21.4667 9.7333 21.4667Z" fill="white" />
  <path d="M12.9333 22.5333C12.9333 21.9442 13.4109 21.4667 14 21.4667C14.5891 21.4667 15.0666 21.9442 15.0666 22.5333C15.0666 23.1224 14.5891 23.6 14 23.6C13.4109 23.6 12.9333 23.1224 12.9333 22.5333Z" fill="white" />
  <path d="M18.2666 21.4667C17.6775 21.4667 17.2 21.9442 17.2 22.5333C17.2 23.1224 17.6775 23.6 18.2666 23.6C18.8557 23.6 19.3333 23.1224 19.3333 22.5333C19.3333 21.9442 18.8557 21.4667 18.2666 21.4667Z" fill="white" />
  <path fill-rule="evenodd" clip-rule="evenodd" d="M7.59997 0.133331C8.18907 0.133331 8.66663 0.610894 8.66663 1.2V2.26666H19.3333V1.2C19.3333 0.610894 19.8109 0.133331 20.4 0.133331C20.9891 0.133331 21.4666 0.610894 21.4666 1.2V2.26666H24.6666C26.4339 2.26666 27.8666 3.69935 27.8666 5.46666V24.6667C27.8666 26.434 26.4339 27.8667 24.6666 27.8667H3.3333C1.56599 27.8667 0.133301 26.434 0.133301 24.6667V5.46666C0.133301 3.69935 1.56599 2.26666 3.3333 2.26666H6.5333V1.2C6.5333 0.610894 7.01086 0.133331 7.59997 0.133331ZM19.3333 4.4V5.46666C19.3333 6.05577 19.8109 6.53333 20.4 6.53333C20.9891 6.53333 21.4666 6.05577 21.4666 5.46666V4.4H24.6666C25.2557 4.4 25.7333 4.87756 25.7333 5.46666V8.66667H2.26663V5.46666C2.26663 4.87756 2.7442 4.4 3.3333 4.4H6.5333V5.46666C6.5333 6.05577 7.01086 6.53333 7.59997 6.53333C8.18907 6.53333 8.66663 6.05577 8.66663 5.46666V4.4H19.3333ZM2.26663 10.8V24.6667C2.26663 25.2558 2.7442 25.7333 3.3333 25.7333H24.6666C25.2557 25.7333 25.7333 25.2558 25.7333 24.6667V10.8H2.26663Z" fill="white" />
</svg>
