<svg width="64" height="64" viewBox="0 0 64 64" fill="none" xmlns="http://www.w3.org/2000/svg">
  <path d="M10.416 34.1318C10.847 34.1318 11.2781 34.0113 11.6477 33.7107L24.2093 23.0648L32.2143 29.8614C32.953 30.4629 33.9999 30.4629 34.6771 29.8013L47.1159 18.6744L50.2566 21.7422C50.6262 22.1032 51.0572 22.2837 51.5497 22.2837C51.7345 22.2837 51.9193 22.2837 52.1041 22.2236C52.7814 22.0431 53.2738 21.502 53.3972 20.84L55.429 10.6751C55.5523 10.0736 55.3675 9.47197 54.9365 9.05094C54.5055 8.6299 53.8896 8.4494 53.2738 8.56987L42.8054 10.4945C42.1281 10.615 41.5737 11.0961 41.3889 11.7577C41.2041 12.4192 41.3889 13.0808 41.8199 13.5623L44.4676 16.1486L33.3834 26.0729L25.3784 19.2763C24.7011 18.6748 23.6542 18.6748 22.977 19.2763L9.18366 30.9454C8.38304 31.607 8.32158 32.7501 8.99888 33.4716C9.36846 33.8927 9.92241 34.1332 10.4154 34.1332L10.416 34.1318Z" fill="white" />
  <path d="M58.0076 52.2834H54.4401V33.0268C54.4401 32.1249 53.692 31.4352 52.7137 31.4352C51.7355 31.4352 50.9874 32.1249 50.9874 33.0268V52.2834H47.5352L47.5356 27.1912C47.5356 26.2894 46.7875 25.5996 45.8092 25.5996C44.831 25.5996 44.0829 26.2893 44.0829 27.1912V52.2834H40.6307L40.6311 38.3313C40.6311 37.4295 39.883 36.7397 38.9048 36.7397C37.9266 36.7397 37.1784 37.4294 37.1784 38.3313V52.2834H33.7262L33.7266 42.5757C33.7266 41.6738 32.9785 40.9841 32.0003 40.9841C31.022 40.9841 30.2739 41.6738 30.2739 42.5757V52.2834H26.8217V33.0268C26.8217 32.1249 26.0736 31.4352 25.0954 31.4352C24.1172 31.4352 23.369 32.1249 23.369 33.0268V52.2834H19.9168L19.9172 46.8192C19.9172 45.9174 19.1691 45.2276 18.1909 45.2276C17.2127 45.2276 16.4645 45.9173 16.4645 46.8192V52.283H13.0123L13.0127 42.0443C13.0127 41.1425 12.2646 40.4527 11.2864 40.4527C10.3081 40.4527 9.56003 41.1424 9.56003 42.0443V52.283H5.99295C5.01476 52.283 4.2666 52.9727 4.2666 53.8746C4.2666 54.7765 5.01471 55.4663 5.99295 55.4663H58.0069C58.9851 55.4663 59.7333 54.7765 59.7333 53.8746C59.7333 52.9727 58.9852 52.283 58.0069 52.283L58.0076 52.2834Z" fill="#F5F5F5" />
</svg>
