<svg width="24" height="24" viewBox="0 0 24 24" fill="none" xmlns="http://www.w3.org/2000/svg">
  <path d="M12.7997 7.2C12.7997 6.75817 12.4415 6.4 11.9997 6.4C11.5579 6.4 11.1997 6.75817 11.1997 7.2V12C11.1997 12.2122 11.284 12.4157 11.434 12.5657L14.634 15.7657C14.9464 16.0781 15.453 16.0781 15.7654 15.7657C16.0778 15.4533 16.0778 14.9467 15.7654 14.6343L12.7997 11.6686V7.2Z" fill="white" />
  <path fill-rule="evenodd" clip-rule="evenodd" d="M11.9999 1.4032C6.14756 1.4032 1.40332 6.14744 1.40332 11.9997C1.40332 17.852 6.14755 22.5963 11.9999 22.5963C17.8521 22.5963 22.5964 17.852 22.5964 11.9997C22.5964 6.14743 17.8521 1.4032 11.9999 1.4032ZM2.92332 11.9997C2.92332 6.98691 6.98703 2.9232 11.9999 2.9232C17.0126 2.9232 21.0764 6.98691 21.0764 11.9997C21.0764 17.0125 17.0126 21.0763 11.9999 21.0763C6.98703 21.0763 2.92332 17.0125 2.92332 11.9997Z" fill="white" />
</svg>
