<svg width="24" height="24" viewBox="0 0 24 24" fill="none" xmlns="http://www.w3.org/2000/svg">
  <path fill-rule="evenodd" clip-rule="evenodd" d="M1.59961 15.1996C1.59961 16.5251 2.67413 17.5996 3.99961 17.5996H6.39961V15.9996H3.99961C3.55778 15.9996 3.19961 15.6414 3.19961 15.1996L3.19961 3.99961C3.19961 3.55778 3.55778 3.19961 3.99961 3.19961L15.1996 3.19961C15.6414 3.19961 15.9996 3.55778 15.9996 3.99961V6.39954H8.79961C7.47413 6.39954 6.39961 7.47406 6.39961 8.79954V19.9995C6.39961 21.325 7.47413 22.3995 8.79961 22.3995H19.9996C21.3251 22.3995 22.3996 21.325 22.3996 19.9995V8.79954C22.3996 7.47406 21.3251 6.39954 19.9996 6.39954H17.5996V3.99961C17.5996 2.67413 16.5251 1.59961 15.1996 1.59961H3.99961C2.67413 1.59961 1.59961 2.67413 1.59961 3.99961V15.1996ZM7.99961 8.79954C7.99961 8.35772 8.35779 7.99954 8.79961 7.99954H19.9996C20.4414 7.99954 20.7996 8.35772 20.7996 8.79954V19.9995C20.7996 20.4414 20.4414 20.7995 19.9996 20.7995H8.79961C8.35779 20.7995 7.99961 20.4414 7.99961 19.9995V8.79954Z" />
</svg>
