<svg width="15" height="15" viewBox="0 0 15 15" xmlns="http://www.w3.org/2000/svg">
  <path fill-rule="evenodd" clip-rule="evenodd" d="M0.877075 7.50204C0.877075 3.84316 3.84319 0.877045 7.50208 0.877045C11.1609 0.877045 14.1271 3.84316 14.1271 7.50204C14.1271 11.1609 11.1609 14.127 7.50208 14.127C3.84319 14.127 0.877075 11.1609 0.877075 7.50204ZM1.84898 7C2.0886 4.26635 4.26639 2.08857 7.00003 1.84895V4.5C7.00003 4.77614 7.22388 5 7.50003 5C7.77617 5 8.00003 4.77614 8.00003 4.5V1.84859C10.7356 2.0864 12.9154 4.26499 13.1552 7H10.5C10.2239 7 10 7.22385 10 7.5C10 7.77614 10.2239 8 10.5 8H13.1555C12.9176 10.7369 10.7369 12.9176 8.00003 13.1555V10.5C8.00003 10.2239 7.77617 10 7.50003 10C7.22388 10 7.00003 10.2239 7.00003 10.5V13.1551C4.26502 12.9154 2.08643 10.7355 1.84862 8H4.50003C4.77617 8 5.00003 7.77614 5.00003 7.5C5.00003 7.22385 4.77617 7 4.50003 7H1.84898Z" />
</svg>
