<svg width="17" height="16" viewBox="0 0 17 16" fill="currentColor" xmlns="http://www.w3.org/2000/svg">
  <path fill-rule="evenodd" clip-rule="evenodd" d="M4.41317 12.087C4.21791 11.8917 4.21791 11.5751 4.41317 11.3799L11.5596 4.2334L6.90006 4.2334C6.62392 4.2334 6.40006 4.00954 6.40006 3.7334C6.40006 3.45726 6.62392 3.2334 6.90006 3.2334L12.7667 3.2334C12.8993 3.2334 13.0265 3.28608 13.1203 3.37985C13.214 3.47361 13.2667 3.60079 13.2667 3.7334L13.2667 9.60007C13.2667 9.87622 13.0429 10.1001 12.7667 10.1001C12.4906 10.1001 12.2667 9.87622 12.2667 9.60007L12.2667 4.94051L5.12028 12.087C4.92502 12.2822 4.60843 12.2822 4.41317 12.087Z" fill="currentColor" />
</svg>

