<svg width="17" height="16" viewBox="0 0 17 16" xmlns="http://www.w3.org/2000/svg">
  <path d="M9.03324 2.93324C9.03324 2.63868 8.79445 2.3999 8.4999 2.3999C8.20535 2.3999 7.96657 2.63868 7.96657 2.93324V7.46657H3.43324C3.13868 7.46657 2.8999 7.70535 2.8999 7.9999C2.8999 8.29445 3.13868 8.53324 3.43324 8.53324H7.96657V13.0666C7.96657 13.3611 8.20535 13.5999 8.4999 13.5999C8.79445 13.5999 9.03324 13.3611 9.03324 13.0666V8.53324H13.5666C13.8611 8.53324 14.0999 8.29445 14.0999 7.9999C14.0999 7.70535 13.8611 7.46657 13.5666 7.46657H9.03324V2.93324Z" />
</svg>
