<svg width="18" height="20" viewBox="0 0 18 20" fill="none" xmlns="http://www.w3.org/2000/svg">
<path d="M16.5 1.50012L15 0.00012207L13.5 1.50012L12 0.00012207L10.5 1.50012L9 0.00012207L7.5 1.50012L6 0.00012207L4.5 1.50012L3 0.00012207V14.0001H0V17.0001C0 18.6601 1.34 20.0001 3 20.0001H15C16.66 20.0001 18 18.6601 18 17.0001V0.00012207L16.5 1.50012ZM12 18.0001H3C2.45 18.0001 2 17.5501 2 17.0001V16.0001H12V18.0001ZM16 17.0001C16 17.5501 15.55 18.0001 15 18.0001C14.45 18.0001 14 17.5501 14 17.0001V14.0001H5V3.00012H16V17.0001Z" fill="white"/>
<path d="M12 5.00012H6V7.00012H12V5.00012Z" fill="white"/>
<path d="M15 5.00012H13V7.00012H15V5.00012Z" fill="white"/>
<path d="M12 8.00012H6V10.0001H12V8.00012Z" fill="white"/>
<path d="M15 8.00012H13V10.0001H15V8.00012Z" fill="white"/>
</svg>
