<svg width="40" height="40" viewBox="0 0 40 40" xmlns="http://www.w3.org/2000/svg">
  <path fill-rule="evenodd" clip-rule="evenodd" d="M16.8 12.5C15.3088 12.5 14.1 13.7088 14.1 15.2C14.1 16.6912 15.3088 17.9 16.8 17.9C18.2912 17.9 19.5 16.6912 19.5 15.2C19.5 13.7088 18.2912 12.5 16.8 12.5ZM12.8 15.7C12.9216 15.7 13.0331 15.6566 13.1197 15.5844C13.312 17.4472 14.8864 18.9 16.8 18.9C18.7136 18.9 20.288 17.4472 20.4803 15.5844C20.5669 15.6566 20.6784 15.7 20.8 15.7H29.6C29.8761 15.7 30.1 15.4761 30.1 15.2C30.1 14.9239 29.8761 14.7 29.6 14.7H20.8C20.6784 14.7 20.5669 14.7434 20.4803 14.8156C20.288 12.9528 18.7136 11.5 16.8 11.5C14.8864 11.5 13.312 12.9528 13.1197 14.8156C13.0331 14.7434 12.9216 14.7 12.8 14.7H10.4C10.1239 14.7 9.89999 14.9239 9.89999 15.2C9.89999 15.4761 10.1239 15.7 10.4 15.7H12.8ZM26.8803 25.1844C26.688 27.0472 25.1136 28.5 23.2 28.5C21.2864 28.5 19.712 27.0472 19.5197 25.1844C19.4331 25.2566 19.3216 25.3 19.2 25.3H10.4C10.1239 25.3 9.89999 25.0761 9.89999 24.8C9.89999 24.5239 10.1239 24.3 10.4 24.3H19.2C19.3216 24.3 19.4331 24.3434 19.5197 24.4156C19.712 22.5528 21.2864 21.1 23.2 21.1C25.1136 21.1 26.688 22.5528 26.8803 24.4156C26.9669 24.3434 27.0784 24.3 27.2 24.3H29.6C29.8761 24.3 30.1 24.5239 30.1 24.8C30.1 25.0761 29.8761 25.3 29.6 25.3H27.2C27.0784 25.3 26.9669 25.2566 26.8803 25.1844ZM20.5 24.8C20.5 23.3088 21.7088 22.1 23.2 22.1C24.6912 22.1 25.9 23.3088 25.9 24.8C25.9 26.2912 24.6912 27.5 23.2 27.5C21.7088 27.5 20.5 26.2912 20.5 24.8Z" fill='current' />
</svg>
