<svg width="25" height="24" viewBox="0 0 25 24" fill="none" xmlns="http://www.w3.org/2000/svg">
  <path d="M12.4994 1.36035C12.0575 1.36035 11.6994 1.71852 11.6994 2.16035V5.63613C11.6994 6.07796 12.0575 6.43613 12.4994 6.43613C12.9412 6.43613 13.2994 6.07796 13.2994 5.63613V2.99526C17.9173 3.40019 21.5394 7.27728 21.5394 12.0004C21.5394 16.993 17.492 21.0403 12.4994 21.0403C7.50672 21.0403 3.45938 16.993 3.45938 12.0004C3.45938 9.77018 4.26592 7.73045 5.6042 6.15383C5.89012 5.81699 5.84884 5.31215 5.512 5.02623C5.17516 4.74031 4.67031 4.78158 4.38439 5.11843C2.8099 6.97332 1.85938 9.37686 1.85938 12.0004C1.85938 17.8767 6.62306 22.6404 12.4994 22.6404C18.3757 22.6404 23.1394 17.8767 23.1394 12.0004C23.1394 6.12404 18.3757 1.36035 12.4994 1.36035Z" fill="#171717" />
  <path d="M11.2842 12.9295L7.25722 7.31617C7.14311 7.15711 7.16095 6.93882 7.29938 6.80039C7.4378 6.66197 7.6561 6.64412 7.81516 6.75824L13.4285 10.7852C14.199 11.338 14.2899 12.4499 13.6194 13.1204C12.9488 13.7909 11.837 13.7001 11.2842 12.9295Z" fill="#171717" />
</svg>
