<svg
  width="14"
  height="14"
  viewBox="0 0 14 14"
  xmlns="http://www.w3.org/2000/svg"
>
  <path
    d="M6.66666 3.66668H7.99999V5.00001H6.66666V3.66668ZM6.66666 6.33334H7.99999V10.3333H6.66666V6.33334ZM7.33332 0.333344C3.65332 0.333344 0.666656 3.32001 0.666656 7.00001C0.666656 10.68 3.65332 13.6667 7.33332 13.6667C11.0133 13.6667 14 10.68 14 7.00001C14 3.32001 11.0133 0.333344 7.33332 0.333344ZM7.33332 12.3333C4.39332 12.3333 1.99999 9.94001 1.99999 7.00001C1.99999 4.06001 4.39332 1.66668 7.33332 1.66668C10.2733 1.66668 12.6667 4.06001 12.6667 7.00001C12.6667 9.94001 10.2733 12.3333 7.33332 12.3333Z"
  />
</svg>
