<svg width="15" height="15" viewBox="0 0 15 15" fill="none" xmlns="http://www.w3.org/2000/svg">
  <path fill-rule="evenodd" clip-rule="evenodd" d="M7.5 0.874985C5.49797 0.874985 3.875 2.49795 3.875 4.49998C3.875 6.15286 4.98124 7.54737 6.49373 7.98349C5.2997 8.129 4.27557 8.55132 3.50407 9.31165C2.52216 10.2794 2.02502 11.72 2.02502 13.5999C2.02502 13.8623 2.23769 14.0749 2.50002 14.0749C2.76236 14.0749 2.97502 13.8623 2.97502 13.5999C2.97502 11.8799 3.42786 10.7206 4.17091 9.98829C4.91536 9.25461 6.02674 8.87497 7.49995 8.87497C8.97317 8.87497 10.0846 9.25461 10.8291 9.98829C11.5721 10.7206 12.025 11.8799 12.025 13.5999C12.025 13.8623 12.2376 14.0749 12.5 14.0749C12.7623 14.0749 12.975 13.8623 12.975 13.5999C12.975 11.72 12.4778 10.2793 11.4959 9.31165C10.7244 8.55134 9.70025 8.12901 8.50625 7.9835C10.0187 7.54738 11.125 6.15287 11.125 4.49998C11.125 2.49795 9.50203 0.874985 7.5 0.874985ZM4.825 4.49998C4.825 3.02262 6.02264 1.82498 7.5 1.82498C8.97736 1.82498 10.175 3.02262 10.175 4.49998C10.175 5.97735 8.97736 7.17498 7.5 7.17498C6.02264 7.17498 4.825 5.97735 4.825 4.49998Z" fill="#F5F5F5" />
</svg>
